<?xml version="1.0" encoding="utf-8"?>
<!-- Generator: Adobe Illustrator 22.1.0, SVG Export Plug-In . SVG Version: 6.00 Build 0)  -->
<svg version="1.1" id="Слой_1" xmlns="http://www.w3.org/2000/svg" xmlns:xlink="http://www.w3.org/1999/xlink" x="0px" y="0px"
	 viewBox="0 0 80 80" style="enable-background:new 0 0 80 80;" xml:space="preserve">
<style type="text/css">
	.st0{fill:#50905E;}
	.st1{fill:#FFFFFF;}
	.st2{fill:none;stroke:#50905E;stroke-width:4;stroke-miterlimit:10;}
</style>
<g>
	<g>
		<path class="st0" d="M40.3,73.5c-18.7,0-34-15.3-34-34c0-18.7,15.3-34,34-34c18.7,0,34,15.3,34,34C74.3,58.2,59,73.5,40.3,73.5z
			 M40.3,9.5C23.4,9.5,9.8,23.2,9.8,40c0,16.8,13.7,30.5,30.5,30.5c16.8,0,30.5-13.7,30.5-30.5C70.8,23.2,57.1,9.5,40.3,9.5z"/>
		<path class="st0" d="M40.3,6c18.5,0,33.5,15,33.5,33.5S58.7,73,40.3,73S6.8,58,6.8,39.5S21.8,6,40.3,6 M40.3,71
			c17.1,0,31-13.9,31-31S57.3,9,40.3,9s-31,13.9-31,31S23.2,71,40.3,71 M40.3,5C21.2,5,5.8,20.4,5.8,39.5S21.2,74,40.3,74
			s34.5-15.4,34.5-34.5S59.3,5,40.3,5L40.3,5z M40.3,70c-16.6,0-30-13.4-30-30s13.4-30,30-30s30,13.4,30,30S56.8,70,40.3,70L40.3,70
			z"/>
	</g>
	<g>
		<circle class="st1" cx="40.3" cy="40" r="29.5"/>
		<path class="st0" d="M40.3,11c16,0,29,13,29,29s-13,29-29,29s-29-13-29-29S24.3,11,40.3,11 M40.3,10c-16.6,0-30,13.4-30,30
			s13.4,30,30,30s30-13.4,30-30S56.8,10,40.3,10L40.3,10z"/>
	</g>
</g>
<path class="st2" d="M27.5,67.5v-35V26"/>
<line class="st2" x1="27" y1="30" x2="18.5" y2="38.5"/>
<line class="st2" x1="27.5" y1="30" x2="36" y2="38.5"/>
<line class="st2" x1="27" y1="41" x2="18.5" y2="49.5"/>
<line class="st2" x1="26.9" y1="40.7" x2="34.6" y2="49.8"/>
</svg>
